#!OML:ASF H:\Not Pregnant\Project 1\Capture day 1\Session 1\non-pregnant.ASF
:FULLY-SPECIFIED
:DEGREES
1890
root 7.4909 16.1117 25.6935 157.388 -88.0419 -141.568
lowerback 0.160676 1.49624 7.27227
upperback -9.1687 1.96912 -1.92495
thorax -9.555 0.15162 -6.28327
lowerneck 8.01353 -10.492 -31.128
upperneck 1.88363 -20.4222 38.3661
head 7.36371 -11.4664 18.0006
rclavicle -7.46685e-015 3.18055e-015
rhumerus -23.6944 -49.7068 8.6638
rradius 27.5918
rwrist 38.0008
rhand -15.888 -12.3872
rfingers 7.12502
rthumb 10.3082 -42.1145
lclavicle -7.46685e-015 3.18055e-015
lhumerus -37.7886 17.6515 -12.2412
lradius 34.4428
lwrist 25.0713
lhand -26.1521 -16.5148
lfingers 7.12502
lthumb 0.398863 13.4646
rfemur -23.6082 -28.4703 36.8569
rtibia 20.3212
rfoot -16.804 20.1615
rtoes 11.6498
lfemur -142.877 86.2005 -91.1683
ltibia 143.26
lfoot -10.8552 -32.6329
ltoes -10.1429
1891
root 7.48979 16.112 25.6946 158.705 -87.9687 -142.888
lowerback 0.173686 1.50562 7.31441
upperback -9.17599 1.98445 -1.92932
thorax -9.56806 0.154354 -6.31369
lowerneck 7.95458 -10.4962 -31.1311
upperneck 1.89062 -20.4149 38.3683
head 7.37522 -11.4575 17.9994
rclavicle -2.67117e-015 4.77083e-015
rhumerus -23.6181 -49.6767 8.56096
rradius 27.6093
rwrist 37.9993
rhand -15.9347 -12.3629
rfingers 7.12502
rthumb 10.2632 -42.0925
lclavicle -2.67117e-015 4.77083e-015
lhumerus -37.8553 17.7034 -12.2779
lradius 34.4506
lwrist 25.0896
lhand -26.1651 -16.5083
lfingers 7.12502
lthumb 0.386275 13.4711
rfemur -23.6058 -28.534 36.8648
rtibia 20.3169
rfoot -16.78 20.3278
rtoes 11.7597
lfemur -143.311 86.2266 -91.5982
ltibia 143.249
lfoot -10.7821 -32.6609
ltoes -10.0522
1892
root 7.48885 16.1125 25.6962 159.802 -87.9002 -143.989
lowerback 0.190391 1.51103 7.36711
upperback -9.18144 1.99535 -1.93446
thorax -9.58191 0.154072 -6.35076
lowerneck 7.89112 -10.5012 -31.1318
upperneck 1.8982 -20.4074 38.3704
head 7.38742 -11.448 17.9972
rclavicle 3.926e-015 4.57205e-015
rhumerus -23.5469 -49.626 8.45056
rradius 27.6217
rwrist 37.9816
rhand -15.9861 -12.3446
rfingers 7.12502
rthumb 10.2136 -42.0766
lclavicle 3.926e-015 4.57205e-015
lhumerus -37.9168 17.7475 -12.3059
lradius 34.4555
lwrist 25.1205
lhand -26.1769 -16.4933
lfingers 7.12502
lthumb 0.374856 13.4861
rfemur -23.6004 -28.5898 36.8704
rtibia 20.309
rfoot -16.7551 20.4754
rtoes 11.853
lfemur -143.753 86.255 -92.0396
ltibia 143.24
lfoot -10.7039 -32.6797
ltoes -9.94617
1893
root 7.48799 16.1133 25.698 160.769 -87.8347 -144.958
lowerback 0.207894 1.51487 7.42241
upperback -9.18708 2.00435 -1.93995
thorax -9.59676 0.152542 -6.38958
lowerneck 7.83044 -10.5071 -31.1227
upperneck 1.9046 -20.3989 38.3654
head 7.39552 -11.4376 17.9892
rclavicle -9.52924e-015 1.37161e-014
rhumerus -23.4866 -49.5673 8.34494
rradius 27.6233
rwrist 37.9682
rhand -16.054 -12.3294
rfingers 7.12502
rthumb 10.148 -42.0646
lclavicle -9.52924e-015 1.37161e-014
lhumerus -37.9683 17.7857 -12.3233
lradius 34.4566
lwrist 25.1595
lhand -26.1821 -16.4713
lfingers 7.12502
lthumb 0.369904 13.5081
rfemur -23.5965 -28.639 36.8756
rtibia 20.3019
rfoot -16.7314 20.6103
rtoes 11.9345
lfemur -144.166 86.2797 -92.4543
ltibia 143.231
lfoot -10.628 -32.6898
ltoes -9.87201
1894
root 7.48715 16.1142 25.6997 161.726 -87.7712 -145.914
lowerback 0.224813 1.51975 7.47247
upperback -9.19368 2.01437 -1.94584
thorax -9.61218 0.151838 -6.42596
lowerneck 7.77631 -10.5131 -31.108
upperneck 1.90752 -20.3896 38.356
head 7.39939 -11.4269 17.978
rclavicle 1.14798e-014 -5.56597e-015
rhumerus -23.4421 -49.5119 8.25449
rradius 27.612
rwrist 37.9743
rhand -16.1314 -12.3266
rfingers 7.12502
rthumb 10.0734 -42.0655
lclavicle 1.14798e-014 -5.56597e-015
lhumerus -38.0023 17.8169 -12.3243
lradius 34.4508
lwrist 25.2045
lhand -26.1814 -16.4452
lfingers 7.12502
lthumb 0.370508 13.5342
rfemur -23.5969 -28.6776 36.8773
rtibia 20.2991
rfoot -16.7046 20.7346
rtoes 12.01
lfemur -144.509 86.2953 -92.8007
ltibia 143.22
lfoot -10.5354 -32.6973
ltoes -9.79564
1895
root 7.48625 16.1154 25.7007 162.995 -87.7096 -147.18
lowerback 0.238754 1.52576 7.49509
upperback -9.20245 2.02409 -1.95109
thorax -9.62849 0.153093 -6.44599
lowerneck 7.73149 -10.5162 -31.0937
upperneck 1.90921 -20.3773 38.3432
head 7.39909 -11.4152 17.9665
rclavicle 2.52705e-014 2.24627e-014
rhumerus -23.407 -49.4786 8.17991
rradius 27.5863
rwrist 38.0213
rhand -16.2103 -12.3299
rfingers 7.12502
rthumb 9.99727 -42.0724
lclavicle 2.52705e-014 2.24627e-014
lhumerus -38.0259 17.8321 -12.307
lradius 34.4451
lwrist 25.2628
lhand -26.1793 -16.4143
lfingers 7.12502
lthumb 0.372566 13.5652
rfemur -23.6042 -28.7018 36.8649
rtibia 20.3044
rfoot -16.6802 20.8486
rtoes 12.0742
lfemur -144.699 86.2982 -93.0084
ltibia 143.204
lfoot -10.4328 -32.7034
ltoes -9.74378
1896
root 7.48531 16.1165 25.7013 164.308 -87.6476 -148.487
lowerback 0.253821 1.53377 7.50779
upperback -9.2139 2.03586 -1.95827
thorax -9.64818 0.155751 -6.46273
lowerneck 7.69486 -10.5172 -31.0779
upperneck 1.91174 -20.3645 38.3307
head 7.39714 -11.4043 17.9559
rclavicle 1.2834e-014 -1.88845e-014
rhumerus -23.391 -49.4528 8.12208
rradius 27.5503
rwrist 38.0947
rhand -16.2815 -12.3443
rfingers 7.12502
rthumb 9.92861 -42.0902
lclavicle 1.2834e-014 -1.88845e-014
lhumerus -38.0304 17.8348 -12.2738
lradius 34.4395
lwrist 25.3295
lhand -26.1749 -16.3787
lfingers 7.12502
lthumb 0.376842 13.6008
rfemur -23.6194 -28.7227 36.8501
rtibia 20.3184
rfoot -16.6559 20.9669
rtoes 12.1447
lfemur -144.902 86.2956 -93.2268
ltibia 143.185
lfoot -10.3401 -32.7126
ltoes -9.74429
1897
root 7.48437 16.1175 25.7013 165.661 -87.5852 -149.832
lowerback 0.267318 1.54686 7.50955
upperback -9.22985 2.05337 -1.9685
thorax -9.67099 0.16157 -6.47708
lowerneck 7.67888 -10.5153 -31.0572
upperneck 1.91091 -20.3524 38.3193
head 7.38993 -11.3957 17.9466
rclavicle 1.68967e-015 1.21259e-014
rhumerus -23.4061 -49.4282 8.09376
rradius 27.5097
rwrist 38.1882
rhand -16.3305 -12.3615
rfingers 7.12502
rthumb 9.88133 -42.1096
lclavicle 1.68967e-015 1.21259e-014
lhumerus -38.0082 17.8228 -12.2183
lradius 34.4367
lwrist 25.4048
lhand -26.1687 -16.3348
lfingers 7.12502
lthumb 0.382793 13.6446
rfemur -23.6453 -28.7475 36.8355
rtibia 20.3407
rfoot -16.6344 21.0936
rtoes 12.2154
lfemur -145.159 86.2876 -93.502
ltibia 143.167
lfoot -10.2638 -32.7207
ltoes -9.7734
1898
root 7.48347 16.1185 25.7014 166.933 -87.5229 -151.093
lowerback 0.281393 1.57213 7.52194
upperback -9.24928 2.08644 -1.99876
thorax -9.69483 0.172907 -6.5206
lowerneck 7.69244 -10.516 -31.0016
upperneck 1.89724 -20.3496 38.3157
head 7.3738 -11.3948 17.9333
rclavicle -2.50717e-014 2.0276e-014
rhumerus -23.5085 -49.3847 8.12268
rradius 27.4725
rwrist 38.2762
rhand -16.3409 -12.3814
rfingers 7.12502
rthumb 9.87132 -42.13
lclavicle -2.50717e-014 2.0276e-014
lhumerus -37.9208 17.8122 -12.1409
lradius 34.4332
lwrist 25.4837
lhand -26.1622 -16.2861
lfingers 7.12502
lthumb 0.389121 13.6933
rfemur -23.6821 -28.7963 36.8282
rtibia 20.368
rfoot -16.6146 21.2478
rtoes 12.3006
lfemur -145.498 86.2797 -93.856
ltibia 143.15
lfoot -10.2047 -32.7285
ltoes -9.78428
1899
root 7.48246 16.1195 25.7014 168.17 -87.462 -152.315
lowerback 0.289939 1.61358 7.53883
upperback -9.27118 2.13967 -2.04846
thorax -9.71403 0.192902 -6.58926
lowerneck 7.74239 -10.5228 -30.9072
upperneck 1.86541 -20.3605 38.3171
head 7.34655 -11.4039 17.9127
rclavicle 1.80149e-015 4.17448e-015
rhumerus -23.7148 -49.3377 8.23339
rradius 27.4423
rwrist 38.3663
rhand -16.3328 -12.388
rfingers 7.12502
rthumb 9.87906 -42.1362
lclavicle 1.80149e-015 4.17448e-015
lhumerus -37.7606 17.8112 -12.0328
lradius 34.429
lwrist 25.5625
lhand -26.1537 -16.24
lfingers 7.12502
lthumb 0.397252 13.7393
rfemur -23.7263 -28.8542 36.8219
rtibia 20.3979
rfoot -16.5964 21.4108
rtoes 12.3864
lfemur -145.94 86.2748 -94.3189
ltibia 143.133
lfoot -10.1663 -32.7347
ltoes -9.76317
1900
root 7.48132 16.1207 25.7015 169.367 -87.4022 -153.493
lowerback 0.286868 1.66429 7.55532
upperback -9.29037 2.20378 -2.10742
thorax -9.72091 0.218561 -6.66806
lowerneck 7.80679 -10.5358 -30.7878
upperneck 1.82159 -20.3799 38.3205
head 7.31353 -11.4184 17.8859
rclavicle -7.92654e-015 -1.0138e-014
rhumerus -23.982 -49.3131 8.39691
rradius 27.4126
rwrist 38.4636
rhand -16.2977 -12.3788
rfingers 7.12502
rthumb 9.91296 -42.1254
lclavicle -7.92654e-015 -1.0138e-014
lhumerus -37.5606 17.8376 -11.9087
lradius 34.4223
lwrist 25.6246
lhand -26.1392 -16.2026
lfingers 7.12502
lthumb 0.411306 13.7767
rfemur -23.7778 -28.9185 36.8177
rtibia 20.428
rfoot -16.5814 21.5785
rtoes 12.4613
lfemur -146.465 86.2719 -94.8695
ltibia 143.118
lfoot -10.1334 -32.737
ltoes -9.67302
1901
root 7.48005 16.122 25.7017 170.594 -87.3442 -154.697
lowerback 0.27295 1.70171 7.55699
upperback -9.30426 2.24988 -2.14364
thorax -9.71908 0.23844 -6.71168
lowerneck 7.83487 -10.546 -30.7071
upperneck 1.80196 -20.3908 38.3123
head 7.29421 -11.4247 17.8617
rclavicle -3.90115e-015 -5.36719e-015
rhumerus -24.1703 -49.3583 8.5205
rradius 27.3699
rwrist 38.5937
rhand -16.25 -12.3494
rfingers 7.12502
rthumb 9.959 -42.0938
lclavicle -3.90115e-015 -5.36719e-015
lhumerus -37.4216 17.8727 -11.7938
lradius 34.4237
lwrist 25.6784
lhand -26.1154 -16.1727
lfingers 7.12502
lthumb 0.434257 13.8066
rfemur -23.837 -28.992 36.8136
rtibia 20.4595
rfoot -16.582 21.7465
rtoes 12.4814
lfemur -146.965 86.2695 -95.4033
ltibia 143.103
lfoot -10.0914 -32.7413
ltoes -9.49567
1902
root 7.47872 16.1235 25.7021 171.761 -87.288 -155.835
lowerback 0.250362 1.72401 7.55056
upperback -9.31345 2.27619 -2.15583
thorax -9.71097 0.251015 -6.72245
lowerneck 7.8227 -10.5534 -30.6662
upperneck 1.80823 -20.3925 38.2922
head 7.28967 -11.4221 17.84
rclavicle -7.88927e-015 -1.98785e-016
rhumerus -24.2703 -49.4546 8.59109
rradius 27.3167
rwrist 38.7348
rhand -16.201 -12.3158
rfingers 7.12502
rthumb 10.0062 -42.058
lclavicle -7.88927e-015 -1.98785e-016
lhumerus -37.3497 17.9144 -11.6924
lradius 34.433
lwrist 25.7193
lhand -26.0875 -16.1573
lfingers 7.12502
lthumb 0.461266 13.8219
rfemur -23.9061 -29.0847 36.8162
rtibia 20.4925
rfoot -16.5937 21.9304
rtoes 12.4613
lfemur -147.409 86.266 -95.8843
ltibia 143.087
lfoot -10.029 -32.7497
ltoes -9.23059
1903
root 7.47743 16.125 25.7025 173.05 -87.2301 -157.091
lowerback 0.220389 1.7227 7.51999
upperback -9.3193 2.27117 -2.13238
thorax -9.70146 0.252168 -6.67787
lowerneck 7.75369 -10.5523 -30.6872
upperneck 1.85435 -20.3758 38.2539
head 7.30529 -11.4044 17.8243
rclavicle -1.49834e-014 -2.38542e-014
rhumerus -24.2228 -49.614 8.56413
rradius 27.2496
rwrist 38.894
rhand -16.1644 -12.2826
rfingers 7.12502
rthumb 10.0415 -42.0231
lclavicle -1.49834e-014 -2.38542e-014
lhumerus -37.3869 17.9504 -11.6192
lradius 34.4552
lwrist 25.752
lhand -26.0526 -16.1533
lfingers 7.12502
lthumb 0.494985 13.8259
rfemur -23.9859 -29.1809 36.8171
rtibia 20.5288
rfoot -16.6176 22.1175
rtoes 12.3938
lfemur -147.753 86.2564 -96.2716
ltibia 143.071
lfoot -9.93506 -32.7667
ltoes -8.89021
1904
root 7.47633 16.1263 25.703 174.097 -87.1681 -158.099
lowerback 0.193063 1.70522 7.49938
upperback -9.32519 2.24668 -2.08676
thorax -9.69752 0.243696 -6.61349
lowerneck 7.64427 -10.5459 -30.7473
upperneck 1.92819 -20.3476 38.2068
head 7.33584 -11.3771 17.8137
rclavicle 9.87711e-015 -4.77083e-015
rhumerus -24.0831 -49.7996 8.46366
rradius 27.1806
rwrist 39.0502
rhand -16.1359 -12.2577
rfingers 7.12502
rthumb 10.0691 -41.9968
lclavicle 9.87711e-015 -4.77083e-015
lhumerus -37.491 17.9715 -11.5687
lradius 34.487
lwrist 25.7848
lhand -26.0165 -16.1555
lfingers 7.12502
lthumb 0.529805 13.8236
rfemur -24.0767 -29.2887 36.836
rtibia 20.5686
rfoot -16.6488 22.3217
rtoes 12.3069
lfemur -148.212 86.2464 -96.7586
ltibia 143.059
lfoot -9.84559 -32.7931
ltoes -8.57006
